<mxfile host="app.diagrams.net" modified="2022-08-26T14:08:06.671Z" agent="5.0 (Windows NT 10.0; WOW64) AppleWebKit/537.36 (KHTML, like Gecko) Chrome/104.0.0.0 Safari/537.36" etag="9w3eoqt3frG4R1Z_h-fx" version="20.2.7" type="github" pages="7">
  <diagram id="sJJTflK7vIMgpE3QwAu8" name="Home.js - Guest">
    <mxGraphModel dx="3280" dy="939" grid="1" gridSize="10" guides="1" tooltips="1" connect="1" arrows="1" fold="1" page="1" pageScale="1" pageWidth="850" pageHeight="1100" math="0" shadow="0">
      <root>
        <mxCell id="0" />
        <mxCell id="1" parent="0" />
        <mxCell id="vm7ZkSxn44f0S-T3G-4R-3" value="" style="rounded=0;whiteSpace=wrap;html=1;shadow=0;glass=0;sketch=0;fillColor=#030303;strokeColor=none;gradientColor=none;align=right;verticalAlign=bottom;fontColor=#FF0000;perimeterSpacing=0;strokeWidth=1;arcSize=0;fillStyle=solid;" parent="1" vertex="1">
          <mxGeometry x="-850" y="110" width="850" height="990" as="geometry" />
        </mxCell>
        <mxCell id="vm7ZkSxn44f0S-T3G-4R-11" value="" style="strokeWidth=1;shadow=0;dashed=0;align=center;html=1;shape=mxgraph.mockup.containers.browserWindow;rSize=0;strokeColor=#666666;strokeColor2=#008cff;strokeColor3=#c4c4c4;mainText=,;recursiveResize=0;glass=0;sketch=0;fontColor=#FF0000;fillColor=#1A1A1A;gradientColor=none;" parent="1" vertex="1">
          <mxGeometry x="-850" width="850" height="110" as="geometry" />
        </mxCell>
        <mxCell id="vm7ZkSxn44f0S-T3G-4R-12" value="Page 1" style="strokeWidth=1;shadow=0;dashed=0;align=center;html=1;shape=mxgraph.mockup.containers.anchor;fontSize=17;fontColor=#666666;align=left;glass=0;sketch=0;fillColor=#1A1A1A;gradientColor=none;" parent="vm7ZkSxn44f0S-T3G-4R-11" vertex="1">
          <mxGeometry x="60" y="12" width="110" height="26" as="geometry" />
        </mxCell>
        <mxCell id="vm7ZkSxn44f0S-T3G-4R-13" value="https://www.draw.io" style="strokeWidth=1;shadow=0;dashed=0;align=center;html=1;shape=mxgraph.mockup.containers.anchor;rSize=0;fontSize=17;fontColor=#666666;align=left;glass=0;sketch=0;fillColor=#1A1A1A;gradientColor=none;" parent="vm7ZkSxn44f0S-T3G-4R-11" vertex="1">
          <mxGeometry x="130" y="60" width="250" height="26" as="geometry" />
        </mxCell>
        <mxCell id="vm7ZkSxn44f0S-T3G-4R-16" value="&lt;span style=&quot;font-size: 18px;&quot;&gt;&lt;font color=&quot;#d7dadc&quot;&gt;&lt;div style=&quot;&quot;&gt;--color-text-grey: #D7DADC&lt;/div&gt;&lt;div style=&quot;&quot;&gt;&lt;br&gt;&lt;/div&gt;&lt;div style=&quot;&quot;&gt;--color-card-header: #272729&lt;/div&gt;&lt;div style=&quot;&quot;&gt;--color-card-bg: #1a1a1b&lt;/div&gt;&lt;div style=&quot;&quot;&gt;--color-card-bg-b: #272729&lt;/div&gt;&lt;div style=&quot;&quot;&gt;&lt;br&gt;&lt;/div&gt;&lt;div style=&quot;&quot;&gt;--color-pink: #fbf1f1;&lt;/div&gt;&lt;div style=&quot;&quot;&gt;--color-green: rgb(70, 209, 96)&lt;/div&gt;&lt;div style=&quot;&quot;&gt;--color-red: rgb(234, 0, 39)&lt;/div&gt;&lt;div style=&quot;&quot;&gt;--color-blue: #4FBCFF;&lt;/div&gt;&lt;div style=&quot;&quot;&gt;&lt;br&gt;&lt;/div&gt;&lt;div style=&quot;&quot;&gt;Nav - Option Selector:&lt;/div&gt;&lt;div style=&quot;&quot;&gt;- My Mind / My Toughts&lt;/div&gt;&lt;div style=&quot;&quot;&gt;&lt;span style=&quot;color: rgb(221, 124, 126); font-family: Verdana; font-size: 17px;&quot;&gt;- Latest&amp;nbsp;thoughts&lt;/span&gt;&lt;br&gt;&lt;/div&gt;&lt;div style=&quot;&quot;&gt;- Followed Minds&lt;/div&gt;&lt;div style=&quot;&quot;&gt;- Lastest Minder&lt;/div&gt;&lt;div style=&quot;&quot;&gt;- Latest Mind Post&lt;/div&gt;&lt;/font&gt;&lt;/span&gt;" style="text;html=1;strokeColor=none;fillColor=none;align=left;verticalAlign=top;whiteSpace=wrap;rounded=0;shadow=0;glass=1;sketch=0;fontColor=#FF0000;" parent="1" vertex="1">
          <mxGeometry x="-1640" y="80" width="360" height="960" as="geometry" />
        </mxCell>
        <mxCell id="QiXBqxBdozGoAsch-DFy-11" value="" style="group" parent="1" vertex="1" connectable="0">
          <mxGeometry x="-850" y="110" width="850" height="70" as="geometry" />
        </mxCell>
        <mxCell id="vm7ZkSxn44f0S-T3G-4R-17" value="Nav.js" style="rounded=0;whiteSpace=wrap;html=1;shadow=0;glass=0;sketch=0;fillColor=#1a1a1b;strokeColor=none;gradientColor=none;align=right;verticalAlign=bottom;fontColor=#FF0000;perimeterSpacing=0;strokeWidth=1;arcSize=0;fillStyle=solid;" parent="QiXBqxBdozGoAsch-DFy-11" vertex="1">
          <mxGeometry width="850" height="70" as="geometry" />
        </mxCell>
        <mxCell id="vm7ZkSxn44f0S-T3G-4R-18" value="&lt;h1&gt;&lt;font color=&quot;#f0f3f5&quot;&gt;Mind&lt;/font&gt;&lt;font color=&quot;#dd7c7e&quot;&gt;It&lt;/font&gt;&lt;br&gt;&lt;/h1&gt;" style="text;html=1;strokeColor=none;fillColor=none;spacing=5;spacingTop=-20;overflow=hidden;rounded=0;shadow=0;glass=0;sketch=0;fillStyle=solid;fontSize=18;fontColor=#F4ABC4;verticalAlign=top;labelPosition=center;verticalLabelPosition=middle;align=left;spacingLeft=16;fontFamily=Verdana;" parent="QiXBqxBdozGoAsch-DFy-11" vertex="1">
          <mxGeometry width="220" height="70" as="geometry" />
        </mxCell>
        <mxCell id="QiXBqxBdozGoAsch-DFy-6" value="Latest&amp;nbsp;thoughts" style="strokeWidth=1;shadow=0;dashed=0;align=center;shape=mxgraph.mockup.forms.comboBox;align=left;mainText=;fontSize=17;spacingLeft=8;labelBackgroundColor=none;html=1;verticalAlign=middle;horizontal=1;fontFamily=Verdana;fillColor=none;strokeColor=#DD7C7E;fontColor=#DD7C7E;" parent="QiXBqxBdozGoAsch-DFy-11" vertex="1">
          <mxGeometry x="190" y="20" width="200" height="30" as="geometry" />
        </mxCell>
        <mxCell id="QiXBqxBdozGoAsch-DFy-7" value="&lt;span style=&quot;font-weight: normal;&quot;&gt;Log In&lt;/span&gt;" style="strokeWidth=1;shadow=0;dashed=0;align=center;html=1;shape=mxgraph.mockup.buttons.button;mainText=;buttonStyle=round;fontSize=17;fontStyle=1;whiteSpace=wrap;labelBackgroundColor=none;fontFamily=Verdana;" parent="QiXBqxBdozGoAsch-DFy-11" vertex="1">
          <mxGeometry x="560" y="20" width="100" height="30" as="geometry" />
        </mxCell>
        <mxCell id="QiXBqxBdozGoAsch-DFy-8" value="&lt;span style=&quot;font-weight: normal;&quot;&gt;Sign Up&lt;/span&gt;" style="strokeWidth=1;shadow=0;dashed=0;align=center;html=1;shape=mxgraph.mockup.buttons.button;mainText=;buttonStyle=round;fontSize=17;fontStyle=1;whiteSpace=wrap;labelBackgroundColor=none;fontFamily=Verdana;fillColor=#f5f5f5;fontColor=#333333;strokeColor=#666666;" parent="QiXBqxBdozGoAsch-DFy-11" vertex="1">
          <mxGeometry x="680" y="20" width="100" height="30" as="geometry" />
        </mxCell>
        <mxCell id="QiXBqxBdozGoAsch-DFy-10" value="" style="html=1;verticalLabelPosition=bottom;align=center;labelBackgroundColor=#ffffff;verticalAlign=top;strokeWidth=2;shadow=0;dashed=0;shape=mxgraph.ios7.icons.user;fontFamily=Verdana;strokeColor=#DD7C7E;fillColor=#1A1A1B;" parent="QiXBqxBdozGoAsch-DFy-11" vertex="1">
          <mxGeometry x="800" y="20" width="30" height="30" as="geometry" />
        </mxCell>
        <mxCell id="6ORwKRKkoLN8BBVJRrJu-14" value="" style="group" vertex="1" connectable="0" parent="1">
          <mxGeometry x="-819" y="212" width="790" height="278" as="geometry" />
        </mxCell>
        <mxCell id="6ORwKRKkoLN8BBVJRrJu-1" value="&lt;span style=&quot;background-color: rgb(255, 0, 0);&quot;&gt;PostCard.js&lt;/span&gt;" style="rounded=0;whiteSpace=wrap;html=1;fillColor=#1a1a1b;align=right;verticalAlign=bottom;labelBorderColor=none;strokeColor=default;" vertex="1" parent="6ORwKRKkoLN8BBVJRrJu-14">
          <mxGeometry width="790" height="248" as="geometry" />
        </mxCell>
        <mxCell id="6ORwKRKkoLN8BBVJRrJu-2" value="" style="rounded=0;whiteSpace=wrap;html=1;labelBackgroundColor=#FF0000;labelBorderColor=none;strokeColor=default;fillColor=#272729;align=right;verticalAlign=bottom;" vertex="1" parent="6ORwKRKkoLN8BBVJRrJu-14">
          <mxGeometry x="49" width="741" height="248" as="geometry" />
        </mxCell>
        <mxCell id="6ORwKRKkoLN8BBVJRrJu-3" value="Post Title" style="text;html=1;strokeColor=none;fillColor=none;align=left;verticalAlign=middle;whiteSpace=wrap;rounded=0;labelBackgroundColor=none;labelBorderColor=none;fontStyle=1;fontSize=24;spacingLeft=12;" vertex="1" parent="6ORwKRKkoLN8BBVJRrJu-14">
          <mxGeometry x="50" width="130" height="42.758620689655174" as="geometry" />
        </mxCell>
        <mxCell id="6ORwKRKkoLN8BBVJRrJu-8" value="Posted by userName 6 hours ago" style="text;strokeColor=none;fillColor=none;align=left;verticalAlign=middle;rounded=0;labelBackgroundColor=none;labelBorderColor=none;fontSize=14;fontColor=#DD7C7E;" vertex="1" parent="6ORwKRKkoLN8BBVJRrJu-14">
          <mxGeometry x="175" y="8.551724137931034" width="260" height="25.655172413793103" as="geometry" />
        </mxCell>
        <mxCell id="6ORwKRKkoLN8BBVJRrJu-10" value="" style="shape=mxgraph.mockup.markup.scratchOut;shadow=0;dashed=0;html=1;strokeColor=#999999;strokeWidth=4;labelBackgroundColor=none;labelBorderColor=none;fontSize=14;fontColor=#D7DADC;fillColor=none;" vertex="1" parent="6ORwKRKkoLN8BBVJRrJu-14">
          <mxGeometry x="79.5" y="80.28776978417267" width="680" height="151.6546762589928" as="geometry" />
        </mxCell>
        <mxCell id="N0qfDgiOPG0IqgWXT3Tx-1" value="Follow" style="html=1;shadow=0;dashed=0;shape=mxgraph.bootstrap.rrect;rSize=5;strokeColor=none;strokeWidth=1;fillColor=#DD7C7E;fontColor=#FFFFFF;whiteSpace=wrap;align=center;verticalAlign=middle;spacingLeft=0;fontStyle=0;fontSize=16;spacing=5;labelBackgroundColor=none;labelBorderColor=none;" vertex="1" parent="6ORwKRKkoLN8BBVJRrJu-14">
          <mxGeometry x="700" y="4.275862068965517" width="80" height="34.206896551724135" as="geometry" />
        </mxCell>
        <mxCell id="N0qfDgiOPG0IqgWXT3Tx-6" value="WebDev, JS, FrontEnd" style="text;strokeColor=none;fillColor=none;align=left;verticalAlign=middle;rounded=0;labelBackgroundColor=none;labelBorderColor=none;fontSize=14;fontColor=#DD7C7E;fontStyle=6" vertex="1" parent="6ORwKRKkoLN8BBVJRrJu-14">
          <mxGeometry x="64" y="34.20812701562886" width="260" height="25.655172413793103" as="geometry" />
        </mxCell>
        <mxCell id="N0qfDgiOPG0IqgWXT3Tx-13" value="" style="group" vertex="1" connectable="0" parent="6ORwKRKkoLN8BBVJRrJu-14">
          <mxGeometry x="10" y="10.262068965517242" width="45" height="267.73793103448276" as="geometry" />
        </mxCell>
        <mxCell id="N0qfDgiOPG0IqgWXT3Tx-9" value="" style="html=1;verticalLabelPosition=bottom;align=center;labelBackgroundColor=#ffffff;verticalAlign=top;strokeWidth=2;shadow=0;dashed=0;shape=mxgraph.ios7.icons.message;labelBorderColor=none;fontSize=20;strokeColor=#DD7C7E;" vertex="1" parent="N0qfDgiOPG0IqgWXT3Tx-13">
          <mxGeometry y="159.73793103448276" width="30" height="27.5" as="geometry" />
        </mxCell>
        <mxCell id="N0qfDgiOPG0IqgWXT3Tx-10" value="" style="html=1;verticalLabelPosition=bottom;align=center;labelBackgroundColor=#ffffff;verticalAlign=top;strokeWidth=2;shadow=0;dashed=0;shape=mxgraph.ios7.icons.back;labelBorderColor=none;fontSize=20;strokeColor=#DD7C7E;" vertex="1" parent="N0qfDgiOPG0IqgWXT3Tx-13">
          <mxGeometry y="203.73793103448276" width="30" height="25.5" as="geometry" />
        </mxCell>
        <mxCell id="N0qfDgiOPG0IqgWXT3Tx-11" value="3" style="text;strokeColor=none;fillColor=none;align=center;verticalAlign=middle;rounded=0;labelBackgroundColor=none;labelBorderColor=none;fontSize=19;fontColor=#DD7C7E;fontStyle=1" vertex="1" parent="N0qfDgiOPG0IqgWXT3Tx-13">
          <mxGeometry x="4" y="156.7386206896552" width="20" height="25.655172413793103" as="geometry" />
        </mxCell>
        <mxCell id="N0qfDgiOPG0IqgWXT3Tx-12" value="" style="group" vertex="1" connectable="0" parent="N0qfDgiOPG0IqgWXT3Tx-13">
          <mxGeometry x="2" width="24.412403870007445" height="59.2406846936244" as="geometry" />
        </mxCell>
        <mxCell id="6ORwKRKkoLN8BBVJRrJu-12" value="" style="html=1;verticalLabelPosition=bottom;labelBackgroundColor=#ffffff;verticalAlign=top;shadow=0;dashed=0;strokeWidth=2;shape=mxgraph.ios7.misc.down;strokeColor=#DD7C7E;labelBorderColor=none;fontSize=14;fontColor=#D7DADC;fillColor=none;aspect=fixed;rotation=-180;" vertex="1" parent="N0qfDgiOPG0IqgWXT3Tx-12">
          <mxGeometry width="24.412403870007445" height="12.206201935003723" as="geometry" />
        </mxCell>
        <mxCell id="N0qfDgiOPG0IqgWXT3Tx-3" value="" style="html=1;verticalLabelPosition=bottom;labelBackgroundColor=#ffffff;verticalAlign=top;shadow=0;dashed=0;strokeWidth=2;shape=mxgraph.ios7.misc.down;strokeColor=#DD7C7E;labelBorderColor=none;fontSize=14;fontColor=#D7DADC;fillColor=none;aspect=fixed;rotation=0;" vertex="1" parent="N0qfDgiOPG0IqgWXT3Tx-12">
          <mxGeometry y="47.03448275862068" width="24.412403870007445" height="12.206201935003723" as="geometry" />
        </mxCell>
        <mxCell id="N0qfDgiOPG0IqgWXT3Tx-5" value="8" style="text;strokeColor=none;fillColor=none;align=center;verticalAlign=middle;rounded=0;labelBackgroundColor=none;labelBorderColor=none;fontSize=19;fontColor=#DD7C7E;fontStyle=1" vertex="1" parent="N0qfDgiOPG0IqgWXT3Tx-12">
          <mxGeometry x="2" y="15.958620689655172" width="20" height="25.655172413793103" as="geometry" />
        </mxCell>
        <mxCell id="N0qfDgiOPG0IqgWXT3Tx-17" value="&lt;font style=&quot;font-size: 15px;&quot; color=&quot;#ff0000&quot;&gt;PostSide&lt;/font&gt;" style="text;html=1;strokeColor=none;fillColor=none;align=center;verticalAlign=middle;whiteSpace=wrap;rounded=0;labelBackgroundColor=none;labelBorderColor=none;fontSize=20;fontColor=#DD7C7E;" vertex="1" parent="N0qfDgiOPG0IqgWXT3Tx-13">
          <mxGeometry x="-15" y="237.73793103448276" width="60" height="30" as="geometry" />
        </mxCell>
        <mxCell id="N0qfDgiOPG0IqgWXT3Tx-19" value="&lt;font style=&quot;font-size: 15px;&quot; color=&quot;#ff0000&quot;&gt;PostHeader&lt;/font&gt;" style="text;html=1;strokeColor=none;fillColor=none;align=center;verticalAlign=middle;whiteSpace=wrap;rounded=0;labelBackgroundColor=none;labelBorderColor=none;fontSize=20;fontColor=#DD7C7E;" vertex="1" parent="6ORwKRKkoLN8BBVJRrJu-14">
          <mxGeometry x="479" y="-30" width="140" height="30" as="geometry" />
        </mxCell>
        <mxCell id="N0qfDgiOPG0IqgWXT3Tx-14" value="&lt;font style=&quot;font-size: 15px;&quot; color=&quot;#ff0000&quot;&gt;PostCard&lt;/font&gt;" style="text;html=1;strokeColor=none;fillColor=none;align=center;verticalAlign=middle;whiteSpace=wrap;rounded=0;labelBackgroundColor=none;labelBorderColor=none;fontSize=20;fontColor=#DD7C7E;" vertex="1" parent="1">
          <mxGeometry x="-1030" y="20" width="60" height="30" as="geometry" />
        </mxCell>
        <mxCell id="N0qfDgiOPG0IqgWXT3Tx-15" value="&lt;font style=&quot;font-size: 15px;&quot; color=&quot;#ff0000&quot;&gt;PostCard&lt;/font&gt;" style="text;html=1;strokeColor=none;fillColor=none;align=center;verticalAlign=middle;whiteSpace=wrap;rounded=0;labelBackgroundColor=none;labelBorderColor=none;fontSize=20;fontColor=#DD7C7E;" vertex="1" parent="1">
          <mxGeometry x="-1020" y="30" width="60" height="30" as="geometry" />
        </mxCell>
        <mxCell id="N0qfDgiOPG0IqgWXT3Tx-16" value="&lt;font style=&quot;font-size: 15px;&quot; color=&quot;#ff0000&quot;&gt;PostCard&lt;/font&gt;" style="text;html=1;strokeColor=none;fillColor=none;align=center;verticalAlign=middle;whiteSpace=wrap;rounded=0;labelBackgroundColor=none;labelBorderColor=none;fontSize=20;fontColor=#DD7C7E;" vertex="1" parent="1">
          <mxGeometry x="-1010" y="40" width="60" height="30" as="geometry" />
        </mxCell>
        <mxCell id="N0qfDgiOPG0IqgWXT3Tx-18" value="&lt;font style=&quot;font-size: 15px;&quot; color=&quot;#ff0000&quot;&gt;PostCard&lt;/font&gt;" style="text;html=1;strokeColor=none;fillColor=none;align=center;verticalAlign=middle;whiteSpace=wrap;rounded=0;labelBackgroundColor=none;labelBorderColor=none;fontSize=20;fontColor=#DD7C7E;" vertex="1" parent="1">
          <mxGeometry x="-70" y="470" width="60" height="30" as="geometry" />
        </mxCell>
      </root>
    </mxGraphModel>
  </diagram>
  <diagram id="RmdmaSFv_pAeih9paiRP" name="Home.js - Logged">
    <mxGraphModel dx="1185" dy="704" grid="1" gridSize="10" guides="1" tooltips="1" connect="1" arrows="1" fold="1" page="1" pageScale="1" pageWidth="850" pageHeight="1100" math="0" shadow="0">
      <root>
        <mxCell id="0" />
        <mxCell id="1" parent="0" />
      </root>
    </mxGraphModel>
  </diagram>
  <diagram id="g5LB3KK0c9TNy4rnAGj5" name="UserPage.js">
    <mxGraphModel dx="1185" dy="704" grid="1" gridSize="10" guides="1" tooltips="1" connect="1" arrows="1" fold="1" page="1" pageScale="1" pageWidth="850" pageHeight="1100" math="0" shadow="0">
      <root>
        <mxCell id="0" />
        <mxCell id="1" parent="0" />
      </root>
    </mxGraphModel>
  </diagram>
  <diagram id="FXkTgX8U5F_3HPd_5ehL" name="UserSettings.js">
    <mxGraphModel dx="1185" dy="704" grid="1" gridSize="10" guides="1" tooltips="1" connect="1" arrows="1" fold="1" page="1" pageScale="1" pageWidth="850" pageHeight="1100" math="0" shadow="0">
      <root>
        <mxCell id="0" />
        <mxCell id="1" parent="0" />
      </root>
    </mxGraphModel>
  </diagram>
  <diagram id="DVQu8qdFh3Y-cEP-sL8J" name="Post.js">
    <mxGraphModel dx="1185" dy="704" grid="1" gridSize="10" guides="1" tooltips="1" connect="1" arrows="1" fold="1" page="1" pageScale="1" pageWidth="850" pageHeight="1100" math="0" shadow="0">
      <root>
        <mxCell id="0" />
        <mxCell id="1" parent="0" />
      </root>
    </mxGraphModel>
  </diagram>
  <diagram id="Dy8QV66VEqtqUuBlz0LK" name="DataBase">
    <mxGraphModel dx="1185" dy="704" grid="1" gridSize="10" guides="1" tooltips="1" connect="1" arrows="1" fold="1" page="1" pageScale="1" pageWidth="850" pageHeight="1100" math="0" shadow="0">
      <root>
        <mxCell id="0" />
        <mxCell id="1" parent="0" />
      </root>
    </mxGraphModel>
  </diagram>
  <diagram id="tsimL0WF-Rl1s9OtApLz" name="- FlowChart">
    <mxGraphModel dx="1185" dy="704" grid="1" gridSize="10" guides="1" tooltips="1" connect="1" arrows="1" fold="1" page="1" pageScale="1" pageWidth="850" pageHeight="1100" math="0" shadow="0">
      <root>
        <mxCell id="0" />
        <mxCell id="1" parent="0" />
      </root>
    </mxGraphModel>
  </diagram>
</mxfile>
